<?xml version="1.0" encoding="utf-8"?>
<!-- Generator: Adobe Illustrator 16.0.3, SVG Export Plug-In . SVG Version: 6.00 Build 0)  -->
<!DOCTYPE svg PUBLIC "-//W3C//DTD SVG 1.1//EN" "http://www.w3.org/Graphics/SVG/1.1/DTD/svg11.dtd">
<svg version="1.1" id="Calque_1" xmlns="http://www.w3.org/2000/svg" xmlns:xlink="http://www.w3.org/1999/xlink" x="0px" y="0px"
	 width="717.566px" height="676.504px" viewBox="-313.383 -257.977 717.566 676.504"
	 enable-background="new -313.383 -257.977 717.566 676.504" xml:space="preserve">
<path fill="#F99C1C" d="M-313.383,178.016l195.711,128.727l41.375-62.734c14.164,40.469,38.633,76.531,71,104.844l-7.5,13.563
	c26.875,20.086,57.07,35.344,89.094,45.391c45.055,11.93,92.125,13.883,137.789,5.969c26.227-4.742,50.938-15.805,71.406-32.734
	l-24.734-15.781l115.281-181.281l27.305,17.453c3.75-50-5.094-100.188-25.922-146.023c-18.492-36.477-45.375-67.914-78.609-91.258
	c-14.203-9.914-28.898-18.414-44.453-25.461l-5.688,10.68c-39.969-18.422-83.883-25.352-127.523-19.719l39.258-62.953l-8.93-6.367
	L-39.672-257.977L-313.383,178.016"/>
<polyline fill="#FFFFFF" points="113.195,165 113.195,80.086 129.43,80.086 129.43,151.352 166.375,151.352 166.375,165 
	113.195,165 "/>
<rect x="-20.094" y="34.195" fill="none" width="41.672" height="55"/>
<text transform="matrix(1 0 0 1 -20.0938 83.8906)" font-family="'MyriadPro-Regular'" font-size="70">4</text>
<rect x="-15.922" y="255.039" fill="none" width="41.656" height="55"/>
<text transform="matrix(1 0 0 1 -15.9219 304.7344)" font-family="'MyriadPro-Regular'" font-size="70">3</text>
<rect x="242.398" y="200.039" fill="none" width="41.656" height="55"/>
<text transform="matrix(1 0 0 1 242.3984 249.7344)" font-family="'MyriadPro-Regular'" font-size="70">1</text>
<rect x="104.906" y="329.211" fill="none" width="41.656" height="55"/>
<text transform="matrix(1 0 0 1 104.9063 378.8828)" font-family="'MyriadPro-Regular'" font-size="70">2</text>
</svg>
